<svg id="kity_svg_6" xmlns="http://www.w3.org/2000/svg" xmlns:xlink="http://www.w3.org/1999/xlink" version="1.1" width="770" height="495" style="background: rgb(251, 251, 251); visibility: visible;" viewBox="0 0 770 495"><defs id="kity_defs_7"><linearGradient id="kity_linearGradient_17" x1="0" y1="0" x2="0" y2="1"><stop id="kity_stop_18" offset="0" stop-color="rgb(255, 255, 255)"></stop><stop id="kity_stop_19" offset="1" stop-color="rgb(204, 204, 204)"></stop></linearGradient><marker id="kity_marker_2" orient="auto" refX="6" refY="0" viewBox="-7 -7 14 14" markerWidth="7" markerHeight="7" markerUnits="userSpaceOnUse"><path id="kity_path_3" fill="rgb(115, 161, 191)" stroke="none" d="M6,0A6,6,0,1,1,-6,0A6,6,0,1,1,6,0"></path></marker></defs><g id="kity_g_8"><g id="minder1" text-rendering="optimize-speed"><g id="minder_connect_group1"><path id="kity_path_31" fill="none" stroke="rgb(115, 161, 191)" stroke-width="1" d="M68.00000237673521,254.50000513345003A107.5,1,0,0,1,175.5000023767352,253.50000513345003"></path><path id="kity_path_97" fill="none" stroke="rgb(115, 161, 191)" stroke-width="1" d="M439.5000023767352,253.50000513345003C454.5000023767352,253.50000513345003,454.5000023767352,111.50000513345003,469.5000023767352,111.50000513345003L523.5000023767352,111.50000513345003"></path><path id="kity_path_105" fill="none" stroke="rgb(115, 161, 191)" stroke-width="1" d="M523.5000023767352,111.50000513345003C586.0000023767352,111.50000513345003,586.0000023767352,45.50000513345003,648.5000023767352,45.50000513345003L726.5000023767352,45.50000513345003"></path><path id="kity_path_107" fill="none" stroke="rgb(115, 161, 191)" stroke-width="1" d="M523.5000023767352,111.50000513345003C586.0000023767352,111.50000513345003,586.0000023767352,97.50000513345003,648.5000023767352,97.50000513345003L750.5000023767352,97.50000513345003"></path><path id="kity_path_109" fill="none" stroke="rgb(115, 161, 191)" stroke-width="1" d="M523.5000023767352,111.50000513345003C586.0000023767352,111.50000513345003,586.0000023767352,149.50000513345003,648.5000023767352,149.50000513345003L726.5000023767352,149.50000513345003"></path><path id="kity_path_129" fill="none" stroke="rgb(115, 161, 191)" stroke-width="1" d="M439.5000023767352,253.50000513345003C454.5000023767352,253.50000513345003,454.5000023767352,267.50000513345003,469.5000023767352,267.50000513345003L545.5000023767352,267.50000513345003"></path><path id="kity_path_137" fill="none" stroke="rgb(115, 161, 191)" stroke-width="1" d="M545.5000023767352,267.50000513345003C560.5000023767352,267.50000513345003,560.5000023767352,215.50000513345003,575.5000023767352,215.50000513345003L641.5000023767352,215.50000513345003"></path><path id="kity_path_145" fill="none" stroke="rgb(115, 161, 191)" stroke-width="1" d="M545.5000023767352,267.50000513345003C560.5000023767352,267.50000513345003,560.5000023767352,267.50000513345003,575.5000023767352,267.50000513345003L641.5000023767352,267.50000513345003"></path><path id="kity_path_161" fill="none" stroke="rgb(115, 161, 191)" stroke-width="1" d="M545.5000023767352,267.50000513345003C560.5000023767352,267.50000513345003,560.5000023767352,319.50000513345003,575.5000023767352,319.50000513345003L653.5000023767352,319.50000513345003"></path><path id="kity_path_169" fill="none" stroke="rgb(115, 161, 191)" stroke-width="1" d="M439.5000023767352,253.50000513345003C454.5000023767352,253.50000513345003,454.5000023767352,423.50000513345003,469.5000023767352,423.50000513345003L535.5000023767352,423.50000513345003"></path><path id="kity_path_177" fill="none" stroke="rgb(115, 161, 191)" stroke-width="1" d="M535.5000023767352,423.50000513345003C550.5000023767352,423.50000513345003,550.5000023767352,371.50000513345003,565.5000023767352,371.50000513345003L631.5000023767352,371.50000513345003"></path><path id="kity_path_185" fill="none" stroke="rgb(115, 161, 191)" stroke-width="1" d="M535.5000023767352,423.50000513345003C550.5000023767352,423.50000513345003,550.5000023767352,423.50000513345003,565.5000023767352,423.50000513345003L631.5000023767352,423.50000513345003"></path><path id="kity_path_193" fill="none" stroke="rgb(115, 161, 191)" stroke-width="1" d="M535.5000023767352,423.50000513345003C550.5000023767352,423.50000513345003,550.5000023767352,475.50000513345003,565.5000023767352,475.50000513345003L619.5000023767352,475.50000513345003"></path></g><g id="minder_node1"><path id="node_outline1" fill="rgb(115, 161, 191)" stroke="rgb(57, 80, 96)" d="M25.50000237673521,234.50000513345003h85a5,5,0,0,1,5,5v30a5,5,0,0,1,-5,5h-85a5,5,0,0,1,-5,-5v-30a5,5,0,0,1,5,-5z" stroke-width="3"></path><g id="node_text1" fill="white"><text id="kity_text_22" text-rendering="inherit" font-size="16" dy=".8em" y="244.10000509768724" x="44.50000237673521">classic</text></g></g><g id="kity_g_14" display="none"><path id="kity_path_15" fill="rgba(0, 92, 153, 0.5)" stroke="none" d="M496.5000023767352,300.50000513345003h44v15h-44z"></path><path id="kity_path_16" fill="none" stroke="rgb(0, 76, 128)" d="M496.5000023767352,315.50000513345003L540.5000023767352,315.50000513345003" stroke-width="1"></path></g><g id="minder_node2" opacity="1"><g id="node_expander1" style="cursor: pointer;"><path id="kity_path_36" fill="white" stroke="gray" d="M176.50000425428152,253.50000511854887A6,6,0,1,1,164.50000425428152,253.50000511854887A6,6,0,1,1,176.50000425428152,253.50000511854887"></path><path id="kity_path_37" fill="none" stroke="gray" d="M166.00000425428152,253.50000511854887L175.00000425428152,253.50000511854887"></path></g><path id="node_outline2" fill="rgb(238, 243, 246)" stroke="rgb(115, 161, 191)" d="M180.50000465661287,240.50000511854887h256a3,3,0,0,1,3,3v20a3,3,0,0,1,-3,3h-256a3,3,0,0,1,-3,-3v-20a3,3,0,0,1,3,-3z" stroke-width="1"></path><g id="node_text2" fill="black"><text id="kity_text_33" text-rendering="inherit" font-size="14" dy=".8em" y="244.40000508725643" x="197.50000465661287">SISO-Single Input Single Output</text></g></g><g id="minder_node9"><g id="node_expander8" style="cursor: pointer;"><path id="kity_path_102" fill="white" stroke="gray" d="M479.50000876933336,97.50000279396772A6,6,0,1,1,467.50000876933336,97.50000279396772A6,6,0,1,1,479.50000876933336,97.50000279396772"></path><path id="kity_path_103" fill="none" stroke="gray" d="M469.00000876933336,97.50000279396772L478.00000876933336,97.50000279396772"></path></g><path id="node_outline9" fill="none" stroke="none" d="M484.50000900775194,86.50000279396772h34a5,5,0,0,1,5,5v12a5,5,0,0,1,-5,5h-34a5,5,0,0,1,-5,-5v-12a5,5,0,0,1,5,-5z" stroke-width="3"></path><g id="node_text9" fill="black"><text id="kity_text_99" text-rendering="inherit" font-size="12" dy=".8em" y="89.70000276714563" x="489.50000900775194">tool</text></g></g><g id="kity_g_12" display="none"><path id="kity_path_13" fill="none" stroke="rgb(66, 94, 112)" d="M501.5000023767352,320.50000513345003h34a5,5,0,0,1,5,5v12a5,5,0,0,1,-5,5h-34a5,5,0,0,1,-5,-5v-12a5,5,0,0,1,5,-5z" stroke-width="5"></path></g><g id="minder_node10"><g id="node_expander11" style="cursor: pointer;" display="none"><path id="kity_path_126" fill="white" stroke="gray" d="M658.5000114366412,31.500001810491085A6,6,0,1,1,646.5000114366412,31.500001810491085A6,6,0,1,1,658.5000114366412,31.500001810491085"></path><path id="kity_path_127" fill="none" stroke="gray"></path></g><path id="node_outline12" fill="none" stroke="none" d="M663.5000116750598,20.500001810491085h58a5,5,0,0,1,5,5v12a5,5,0,0,1,-5,5h-58a5,5,0,0,1,-5,-5v-12a5,5,0,0,1,5,-5z" stroke-width="3"></path><g id="node_text12" fill="black"><text id="kity_text_123" text-rendering="inherit" font-size="12" dy=".8em" y="23.700001783668995" x="668.5000116750598">微分方程</text></g></g><g id="minder_node11"><g id="node_expander10" style="cursor: pointer;" display="none"><path id="kity_path_120" fill="white" stroke="gray" d="M658.5000114366412,83.50000258535147A6,6,0,1,1,646.5000114366412,83.50000258535147A6,6,0,1,1,658.5000114366412,83.50000258535147"></path><path id="kity_path_121" fill="none" stroke="gray"></path></g><path id="node_outline11" fill="none" stroke="none" d="M663.5000116750598,72.50000258535147h82a5,5,0,0,1,5,5v12a5,5,0,0,1,-5,5h-82a5,5,0,0,1,-5,-5v-12a5,5,0,0,1,5,-5z" stroke-width="3"></path><g id="node_text11" fill="black"><text id="kity_text_117" text-rendering="inherit" font-size="12" dy=".8em" y="75.70000255852938" x="668.5000116750598">拉普拉斯变换</text></g></g><g id="minder_node12"><g id="node_expander9" style="cursor: pointer;" display="none"><path id="kity_path_114" fill="white" stroke="gray" d="M658.5000114366412,135.50000336021185A6,6,0,1,1,646.5000114366412,135.50000336021185A6,6,0,1,1,658.5000114366412,135.50000336021185"></path><path id="kity_path_115" fill="none" stroke="gray"></path></g><path id="node_outline10" fill="none" stroke="none" d="M663.5000116750598,124.50000336021185h58a5,5,0,0,1,5,5v12a5,5,0,0,1,-5,5h-58a5,5,0,0,1,-5,-5v-12a5,5,0,0,1,5,-5z" stroke-width="3"></path><g id="node_text10" fill="black"><text id="kity_text_111" text-rendering="inherit" font-size="12" dy=".8em" y="127.70000333338976" x="668.5000116750598">传递函数</text></g></g><g id="minder_node13"><g id="node_expander12" style="cursor: pointer;"><path id="kity_path_134" fill="white" stroke="gray" d="M479.50000876933336,253.50000511854887A6,6,0,1,1,467.50000876933336,253.50000511854887A6,6,0,1,1,479.50000876933336,253.50000511854887"></path><path id="kity_path_135" fill="none" stroke="gray" d="M469.00000876933336,253.50000511854887L478.00000876933336,253.50000511854887"></path></g><path id="node_outline13" fill="none" stroke="none" d="M484.50000900775194,242.50000511854887h56a5,5,0,0,1,5,5v12a5,5,0,0,1,-5,5h-56a5,5,0,0,1,-5,-5v-12a5,5,0,0,1,5,-5z" stroke-width="3"></path><g id="node_text13" fill="black"><text id="kity_text_131" text-rendering="inherit" font-size="12" dy=".8em" y="245.70000509172678" x="489.50000900775194">method</text></g></g><g id="minder_node14"><g id="node_expander13" style="cursor: pointer;" display="none"><path id="kity_path_142" fill="white" stroke="gray" d="M585.5000103488564,201.5000043436885A6,6,0,1,1,573.5000103488564,201.5000043436885A6,6,0,1,1,585.5000103488564,201.5000043436885"></path><path id="kity_path_143" fill="none" stroke="gray"></path></g><path id="node_outline14" fill="none" stroke="none" d="M590.500010587275,190.5000043436885h46a5,5,0,0,1,5,5v12a5,5,0,0,1,-5,5h-46a5,5,0,0,1,-5,-5v-12a5,5,0,0,1,5,-5z" stroke-width="3"></path><g id="node_text14" fill="black"><text id="kity_text_139" text-rendering="inherit" font-size="12" dy=".8em" y="193.7000043168664" x="595.500010587275">时域法</text></g></g><g id="minder_node15"><g id="node_expander14" style="cursor: pointer;" display="none"><path id="kity_path_150" fill="white" stroke="gray" d="M585.5000103488564,253.50000511854887A6,6,0,1,1,573.5000103488564,253.50000511854887A6,6,0,1,1,585.5000103488564,253.50000511854887"></path><path id="kity_path_151" fill="none" stroke="gray" d="M575.0000103488564,253.50000511854887L584.0000103488564,253.50000511854887"></path></g><path id="node_outline15" fill="none" stroke="none" d="M590.500010587275,242.50000511854887h46a5,5,0,0,1,5,5v12a5,5,0,0,1,-5,5h-46a5,5,0,0,1,-5,-5v-12a5,5,0,0,1,5,-5z" stroke-width="3"></path><g id="node_text15" fill="black"><text id="kity_text_147" text-rendering="inherit" font-size="12" dy=".8em" y="245.70000509172678" x="595.500010587275">频域法</text></g></g><g id="minder_node17"><g id="node_expander16" style="cursor: pointer;" display="none"><path id="kity_path_166" fill="white" stroke="gray" d="M585.5000103488564,305.50000589340925A6,6,0,1,1,573.5000103488564,305.50000589340925A6,6,0,1,1,585.5000103488564,305.50000589340925"></path><path id="kity_path_167" fill="none" stroke="gray"></path></g><path id="node_outline17" fill="none" stroke="none" d="M590.500010587275,294.50000589340925h58a5,5,0,0,1,5,5v12a5,5,0,0,1,-5,5h-58a5,5,0,0,1,-5,-5v-12a5,5,0,0,1,5,-5z" stroke-width="3"></path><g id="node_text17" fill="black"><text id="kity_text_163" text-rendering="inherit" font-size="12" dy=".8em" y="297.70000586658716" x="595.500010587275">根轨迹法</text></g></g><g id="minder_node18"><g id="node_expander17" style="cursor: pointer;"><path id="kity_path_174" fill="white" stroke="gray" d="M479.50000876933336,409.50000744313A6,6,0,1,1,467.50000876933336,409.50000744313A6,6,0,1,1,479.50000876933336,409.50000744313"></path><path id="kity_path_175" fill="none" stroke="gray" d="M469.00000876933336,409.50000744313L478.00000876933336,409.50000744313"></path></g><path id="node_outline18" fill="none" stroke="none" d="M484.50000900775194,398.50000744313h46a5,5,0,0,1,5,5v12a5,5,0,0,1,-5,5h-46a5,5,0,0,1,-5,-5v-12a5,5,0,0,1,5,-5z" stroke-width="3"></path><g id="node_text18" fill="black"><text id="kity_text_171" text-rendering="inherit" font-size="12" dy=".8em" y="401.7000074163079" x="489.50000900775194">target</text></g></g><g id="minder_node19"><g id="node_expander18" style="cursor: pointer;" display="none"><path id="kity_path_182" fill="white" stroke="gray" d="M575.5000101998448,357.50000666826963A6,6,0,1,1,563.5000101998448,357.50000666826963A6,6,0,1,1,575.5000101998448,357.50000666826963"></path><path id="kity_path_183" fill="none" stroke="gray"></path></g><path id="node_outline19" fill="none" stroke="none" d="M580.5000104382634,346.50000666826963h46a5,5,0,0,1,5,5v12a5,5,0,0,1,-5,5h-46a5,5,0,0,1,-5,-5v-12a5,5,0,0,1,5,-5z" stroke-width="3"></path><g id="node_text19" fill="black"><text id="kity_text_179" text-rendering="inherit" font-size="12" dy=".8em" y="349.70000664144754" x="585.5000104382634">快速性</text></g></g><g id="minder_node20"><g id="node_expander19" style="cursor: pointer;" display="none"><path id="kity_path_190" fill="white" stroke="gray" d="M575.5000101998448,409.50000744313A6,6,0,1,1,563.5000101998448,409.50000744313A6,6,0,1,1,575.5000101998448,409.50000744313"></path><path id="kity_path_191" fill="none" stroke="gray"></path></g><path id="node_outline20" fill="none" stroke="none" d="M580.5000104382634,398.50000744313h46a5,5,0,0,1,5,5v12a5,5,0,0,1,-5,5h-46a5,5,0,0,1,-5,-5v-12a5,5,0,0,1,5,-5z" stroke-width="3"></path><g id="node_text20" fill="black"><text id="kity_text_187" text-rendering="inherit" font-size="12" dy=".8em" y="401.7000074163079" x="585.5000104382634">稳定性</text></g></g><g id="minder_node21"><g id="node_expander20" style="cursor: pointer;" display="none"><path id="kity_path_198" fill="white" stroke="gray" d="M575.5000101998448,461.5000082179904A6,6,0,1,1,563.5000101998448,461.5000082179904A6,6,0,1,1,575.5000101998448,461.5000082179904"></path><path id="kity_path_199" fill="none" stroke="gray"></path></g><path id="node_outline21" fill="none" stroke="none" d="M580.5000104382634,450.5000082179904h34a5,5,0,0,1,5,5v12a5,5,0,0,1,-5,5h-34a5,5,0,0,1,-5,-5v-12a5,5,0,0,1,5,-5z" stroke-width="3"></path><g id="node_text21" fill="black"><text id="kity_text_195" text-rendering="inherit" font-size="12" dy=".8em" y="453.7000081911683" x="585.5000104382634">精度</text></g></g></g></g></svg>